<svg viewBox="179.351 -33.072 564.236 572.504" xmlns="http://www.w3.org/2000/svg" xmlns:bx="https://boxy-svg.com"><g transform="matrix(1.1117 0 -.00054 1.17639 -56.284 -109.721)"><circle transform="matrix(.62022 0 .00029 .59128 191.077 216.838)" cx="443" cy="155" r="408.883" fill="#0c1f2e"/><ellipse cx="461.469" cy="369.39" rx="90.592" ry="144.019" fill="#824f1b"/><ellipse cx="461.469" cy="219.953" rx="64.024" ry="84.347" fill="#8e5f26"/><path d="M441.327 497.093h38.138c4.905-.094-9.184 5.43-13.904 19.398-3.981 11.782-3.451 18.61-4.37 19.399-.475.406-2.247-12.358-5.165-19.952-4.334-11.279-5.16-11.79-14.699-18.845z" fill="#1c1818"/><ellipse cx="461.469" cy="126.015" rx="45.296" ry="27.077" fill="#321919"/><ellipse cx="332.753" cy="155.343" rx="12.058" ry="20.035" transform="rotate(59.045 418.559 227.687)" bx:origin="0.46 0.492" fill="#fff"/><ellipse cx="332.753" cy="155.343" rx="12.195" ry="21.513" transform="rotate(119.313 420.993 181.394)" bx:origin="0.46 0.492" fill="#fff"/><path d="M448.56 183.268l-138.112 56.624c-13.068 5.234-19.445 18.336-13.476 27.69 11.327 17.751 35.825 17.685 60.87 8.404 43.15-15.992 74.29-32.743 89.903-69.662 2.494-6.542 16.249-27.755.815-23.056z" fill="#095a7d"/><path d="M449.549 175.791l-167.247 1.742c-15.773 0-27.864 14.014-25.552 29.617 4.388 29.611 29.897 42.559 59.814 43.553 51.545 1.714 90.912-3.972 122.532-44.715 5.32-7.363 28.464-28.227 10.453-30.197z" fill="#69a5be"/><path d="M473.59 182.424l138.112 56.624c13.068 5.233 19.445 18.336 13.476 27.69-11.327 17.751-35.825 17.685-60.87 8.404-43.15-15.992-74.29-32.743-89.903-69.662-2.494-6.542-16.249-27.755-.815-23.056z" fill="#095a7d"/><path d="M371.444 379.557l180.032 1.923c-.343 11.732-.771 8.797-2.126 24.627-.07.807-175.485-1.584-175.485-1.584.596-2.093-2.815-12.424-2.42-24.966zM377.76 423.271l166.783 1.161c-2.917 13.421-3.263 11.625-6.308 21.085-.774 2.402-153.441-.179-153.441-.179-2.597-8.123-4.368-10.066-7.034-22.067z"/><path d="M471.334 175.037l167.247 1.742c15.773 0 27.864 14.014 25.552 29.617-4.388 29.611-29.897 42.56-59.814 43.553-51.545 1.714-90.912-3.972-122.532-44.715-5.32-7.363-28.464-28.227-10.453-30.197z" fill="#69a5be"/><path d="M392.012 459.753l139.062.69c-9.196 16.903-3.676 8.794-13.64 22.32-1.47 1.996-112.678-.955-112.678-.955-9.35-12.2-5.466-9.516-12.744-22.055zM371.98 344.198l178.032-.111c1.131 4.765 2.137 13.557 1.877 24.265-.011.468-180.379-.76-180.379-.76.385-5.662-.349-14.436.47-23.394z"/></g></svg>