<svg xmlns="http://www.w3.org/2000/svg" viewBox="0 0 75.8 74.9"><radialGradient id="a" cx=".583" cy="73.079" r="132.615" gradientUnits="userSpaceOnUse"><stop offset="0" stop-color="#f4ec55"/><stop offset=".241" stop-color="#e48242"/><stop offset=".346" stop-color="#d66863"/><stop offset=".442" stop-color="#cd4f74"/><stop offset=".489" stop-color="#c94379"/><stop offset="1" stop-color="#3f56a6"/></radialGradient><path fill="url(#a)" d="M38.2 72.8c-19.8 0-35.8-16-35.8-35.8 0-19.8 16.1-35.9 35.9-35.9C58 1.1 74.1 17.2 74.1 37c0 19.8-16.1 35.8-35.9 35.8z"/><g fill="#FFF"><path d="M38.2 20.9c5.3 0 5.9 0 7.9.1 1.9.1 3 .4 3.7.7.9.4 1.6.8 2.3 1.5.7.7 1.1 1.3 1.5 2.3.3.7.6 1.7.7 3.7.1 2.1.1 2.7.1 7.9 0 5.3 0 5.9-.1 7.9-.1 1.9-.4 3-.7 3.7-.4.9-.8 1.6-1.5 2.3-.7.7-1.3 1.1-2.3 1.5-.7.3-1.7.6-3.7.7-2.1.1-2.7.1-7.9.1-5.3 0-5.9 0-7.9-.1-1.9-.1-3-.4-3.7-.7-.9-.4-1.6-.8-2.3-1.5-.7-.7-1.1-1.3-1.5-2.3-.3-.7-.6-1.7-.7-3.7-.1-2.1-.1-2.7-.1-7.9 0-5.3 0-5.9.1-7.9.1-1.9.4-3 .7-3.7.4-.9.8-1.6 1.5-2.3.7-.7 1.3-1.1 2.3-1.5.7-.3 1.7-.6 3.7-.7 2.1-.1 2.7-.1 7.9-.1m0-3.6c-5.3 0-6 0-8.1.1-2.1.1-3.5.4-4.8.9-1.3.5-2.4 1.2-3.5 2.3-1.1 1.1-1.8 2.2-2.3 3.5-.5 1.3-.8 2.7-.9 4.8-.1 2.1-.1 2.8-.1 8.1s0 6 .1 8.1c.1 2.1.4 3.5.9 4.8.5 1.3 1.2 2.4 2.3 3.5 1.1 1.1 2.2 1.8 3.5 2.3 1.3.5 2.7.8 4.8.9 2.1.1 2.8.1 8.1.1s6 0 8.1-.1c2.1-.1 3.5-.4 4.8-.9 1.3-.5 2.4-1.2 3.5-2.3 1.1-1.1 1.8-2.2 2.3-3.5.5-1.3.8-2.7.9-4.8.1-2.1.1-2.8.1-8.1s0-6-.1-8.1c-.1-2.1-.4-3.5-.9-4.8-.5-1.3-1.2-2.4-2.3-3.5-1.1-1.1-2.2-1.8-3.5-2.3-1.3-.5-2.7-.8-4.8-.9-2-.1-2.7-.1-8.1-.1"/><path d="M38.2 26.9c-5.6 0-10.1 4.5-10.1 10.1s4.5 10.1 10.1 10.1S48.3 42.6 48.3 37s-4.5-10.1-10.1-10.1m0 16.6c-3.6 0-6.6-2.9-6.6-6.6 0-3.6 2.9-6.6 6.6-6.6 3.6 0 6.6 2.9 6.6 6.6 0 3.7-2.9 6.6-6.6 6.6M51.1 26.5c0 1.3-1.1 2.4-2.4 2.4-1.3 0-2.4-1.1-2.4-2.4 0-1.3 1.1-2.4 2.4-2.4 1.3 0 2.4 1.1 2.4 2.4"/></g></svg>