<?xml version="1.0"?>
<svg width="512" height="512" xmlns="http://www.w3.org/2000/svg" xmlns:svg="http://www.w3.org/2000/svg" xmlns:xlink="http://www.w3.org/1999/xlink">
 <!-- Created with SVG-edit - https://github.com/SVG-Edit/svgedit-->
 <defs>
  <symbol data-name="Layer 1" id="svg_2" viewBox="0 0 122.88 122.88" xmlns="http://www.w3.org/2000/svg">
   <title>round-line-right-arrow</title>
   <path d="m61.45,122.85l0,0l0,0a61.39,61.39 0 0 1 -61.45,-61.4l0,0l0,0l0,0a61.38,61.38 0 0 1 61.43,-61.45l0,0l0,0l0,0a61.35,61.35 0 0 1 61.38,61.4l0,0l0,0l0,0a61.34,61.34 0 0 1 -61.4,61.38l0.04,0.07zm29.55,-61.41l-30.53,-27.52l0,17.58l-21.27,0l0,19.88l21.27,0l0,17.62l30.53,-27.56zm-29.56,48.28l0,0l0,0a48.36,48.36 0 0 0 48.29,-48.27l0,0l0,0l0,0a48.35,48.35 0 0 0 -48.26,-48.31l0,0l0,0l0,0a48.27,48.27 0 0 0 -48.33,48.27l0,0l0,0l0,0a48.3,48.3 0 0 0 48.3,48.27l0,0.04z"/>
  </symbol>
 </defs>
 <g class="layer">
  <title>Layer 1</title>
  <use fill="#ffffff" id="svg_3" transform="matrix(0.996099 0 0 0.992216 0.0030185 0.00702396)" x="1.273965" xlink:href="#svg_2" y="1.902437"/>
  <g id="svg_4"/>
  <g id="svg_5"/>
 </g>
</svg>