<svg width="311" height="467" xmlns="http://www.w3.org/2000/svg">
 <!-- Created with UXWing SVG Editor - https://uxwing.com/svg-icon-editor/ -->

 <g>
  <title>background</title>
  <rect fill="none" id="canvas_background" height="469" width="313" y="-1" x="-1"/>
  <g display="none" overflow="visible" y="0" x="0" height="100%" width="100%" id="canvasGrid">
   <rect fill="url(#gridpattern)" stroke-width="0" y="0" x="0" height="100%" width="100%"/>
  </g>
 </g>
 <g>
  <title>Layer 1</title>
  <style transform="matrix(1.9290121985070527,0,0,1.9290121985070527,0,0) " type="text/css">.st0{fill-rule:evenodd;clip-rule:evenodd;}</style>
  <style transform="matrix(5.683197117266957,0,0,5.683197117266957,0,0) " type="text/css">.st0{fill-rule:evenodd;clip-rule:evenodd;}</style>
  <g stroke="null" id="svg_21">
   <g stroke="null" transform="matrix(3.6717428887329886,0,0,3.616140043624886,14.65949475440787,118.32385986915193) " id="svg_19">
    <path stroke="null" fill="#f5deb3" id="svg_20" d="m15.439121,-29.451154l46.11,0c3.51,0 6.69,1.43 9,3.74c2.31,2.31 3.74,5.49 3.74,9l0,97.4c0,3.51 -1.43,6.69 -3.74,9c-2.31,2.31 -5.49,3.74 -9,3.74l-46.11,0c-3.51,0 -6.69,-1.43 -9,-3.74c-2.31,-2.31 -3.74,-5.49 -3.74,-9l0,-97.4c0,-3.51 1.43,-6.69 3.74,-9c2.31,-2.31 5.5,-3.74 9,-3.74l0,0zm23.05,107.18c2.88,0 5.22,2.34 5.22,5.22c0,2.88 -2.34,5.22 -5.22,5.22c-2.88,0 -5.22,-2.34 -5.22,-5.22c0.01,-2.88 2.34,-5.22 5.22,-5.22l0,0zm-32.13,-4l64.28,0l0,-83.48l-64.28,0l0,83.48l0,0z" class="st0"/>
   </g>
  </g>
 </g>
</svg>